<svg xmlns="http://www.w3.org/2000/svg" width="40.5" height="31.499" viewBox="0 0 40.5 28.445">
  <path id="Icon_awesome-behance" data-name="Icon awesome-behance" d="M16.313,18.047a6.035,6.035,0,0,0,3.4-5.829c0-5.561-3.7-6.916-7.966-6.916H0V33.218H12.08c4.528,0,8.782-2.434,8.782-8.106,0-3.505-1.484-6.1-4.549-7.066ZM5.477,10.067h5.14c1.976,0,3.755.622,3.755,3.19,0,2.371-1.385,3.324-3.34,3.324H5.477V10.067Zm5.857,18.409H5.477V20.788h5.97c2.412,0,3.938,1.126,3.938,3.986,0,2.82-1.821,3.7-4.05,3.7ZM36.541,9.516h-10.1V6.767h10.1V9.516ZM40.5,23.4c0-5.979-3.122-10.965-8.782-10.965-5.5,0-9.232,4.632-9.232,10.7,0,6.294,3.537,10.611,9.232,10.611,4.31,0,7.1-2.174,8.445-6.8H35.789a4.077,4.077,0,0,1-3.916,2.639c-2.9,0-4.43-1.906-4.43-5.144H40.458C40.479,24.112,40.5,23.758,40.5,23.4ZM27.45,20.946c.162-2.655,1.737-4.317,4.113-4.317,2.489,0,3.741,1.638,3.952,4.317Z" transform="translate(0 -5.302)" fill="#fff"/>
</svg>
