<svg xmlns="http://www.w3.org/2000/svg" width="221.964" height="36.176" viewBox="0 0 221.964 36.176">
  <path id="Intersection_1" data-name="Intersection 1" d="M207.06,47.066a3.2,3.2,0,0,1-.908-.429,2.1,2.1,0,0,1-.615-.654,1.6,1.6,0,0,1-.225-.831,1.856,1.856,0,0,1,.147-.723,1.814,1.814,0,0,1,.419-.615,2.164,2.164,0,0,1,.664-.43,2.229,2.229,0,0,1,.879-.166,2.5,2.5,0,0,1,.888.127,4.029,4.029,0,0,1,.586.283,5.125,5.125,0,0,0,.557.283,2.122,2.122,0,0,0,.82.127,1.615,1.615,0,0,0,.977-.312,3.417,3.417,0,0,0,.771-.791,7.044,7.044,0,0,0,.616-1.045c.183-.377.345-.729.489-1.055l1.191-2.656L205.2,21.188h4.023l6.895,12.871,5.625-12.871h1.875l-9.082,20.938a10.786,10.786,0,0,1-1.337,2.265,8.954,8.954,0,0,1-1.582,1.592,6.036,6.036,0,0,1-1.719.937,5.354,5.354,0,0,1-1.729.3A3.794,3.794,0,0,1,207.06,47.066ZM21.191,39.547,4.785,20.739H4.648V39H2.911V15.875H5.078L20.235,32.77h.156V15.875h1.7V39.547Zm156.992-.83a8.877,8.877,0,0,1-2.774-1.846,8.648,8.648,0,0,1-1.875-2.744,8.351,8.351,0,0,1-.684-3.37,12.2,12.2,0,0,1,.626-3.974,9.389,9.389,0,0,1,1.777-3.154,8.222,8.222,0,0,1,2.763-2.08,8.423,8.423,0,0,1,3.6-.751,8.182,8.182,0,0,1,3.213.615,7.775,7.775,0,0,1,2.5,1.66,7.665,7.665,0,0,1,1.631,2.4,7.1,7.1,0,0,1,.586,2.842h-13.3a11.566,11.566,0,0,0,.459,3.33,8.3,8.3,0,0,0,1.3,2.646A6.29,6.29,0,0,0,180,36.041a5.177,5.177,0,0,0,2.539.634,6.7,6.7,0,0,0,2.217-.371,7.753,7.753,0,0,0,1.934-.986,6.852,6.852,0,0,0,1.474-1.4,5.01,5.01,0,0,0,.859-1.621l1,.449a8.7,8.7,0,0,1-1.23,2.578,9.758,9.758,0,0,1-4.473,3.535,7.44,7.44,0,0,1-2.734.527A8.581,8.581,0,0,1,178.184,38.717Zm.791-16.231a4.169,4.169,0,0,0-1.3,1.005,5.838,5.838,0,0,0-1.407,3.4h8.848a4.856,4.856,0,0,0-.362-1.885,4.787,4.787,0,0,0-.986-1.514,4.509,4.509,0,0,0-3.262-1.367A3.416,3.416,0,0,0,178.975,22.486ZM131.934,38.717a8.877,8.877,0,0,1-2.774-1.846,8.648,8.648,0,0,1-1.875-2.744,8.367,8.367,0,0,1-.684-3.37,12.2,12.2,0,0,1,.625-3.974A9.389,9.389,0,0,1,129,23.629a8.222,8.222,0,0,1,2.763-2.08,8.423,8.423,0,0,1,3.6-.751,8.182,8.182,0,0,1,3.213.615,7.774,7.774,0,0,1,2.5,1.66,7.664,7.664,0,0,1,1.631,2.4,7.1,7.1,0,0,1,.586,2.842H130a11.566,11.566,0,0,0,.459,3.33,8.285,8.285,0,0,0,1.3,2.646,6.287,6.287,0,0,0,1.992,1.749,5.177,5.177,0,0,0,2.539.634,6.7,6.7,0,0,0,2.217-.371,7.754,7.754,0,0,0,1.934-.986,6.852,6.852,0,0,0,1.474-1.4,5.01,5.01,0,0,0,.859-1.621l1,.449a8.679,8.679,0,0,1-1.23,2.578,9.757,9.757,0,0,1-4.473,3.535,7.439,7.439,0,0,1-2.734.527A8.581,8.581,0,0,1,131.934,38.717Zm.791-16.231a4.169,4.169,0,0,0-1.3,1.005,5.838,5.838,0,0,0-1.407,3.4h8.848a4.856,4.856,0,0,0-.362-1.885,4.787,4.787,0,0,0-.986-1.514,4.509,4.509,0,0,0-3.262-1.367A3.416,3.416,0,0,0,132.725,22.486ZM85.283,39.049A4.057,4.057,0,0,1,82.939,36.7a4.762,4.762,0,0,1-.322-1.759,4.566,4.566,0,0,1,.459-2.07,5.741,5.741,0,0,1,1.25-1.651,9.028,9.028,0,0,1,1.836-1.3A18.041,18.041,0,0,1,88.4,28.9q1.192-.45,2.442-.791t2.442-.654V26.344a7.359,7.359,0,0,0-.244-2.041,3.552,3.552,0,0,0-.694-1.347,2.527,2.527,0,0,0-1.084-.743,4.3,4.3,0,0,0-1.436-.225,3.869,3.869,0,0,0-1.465.235,2.27,2.27,0,0,0-.888.615,2.088,2.088,0,0,0-.44.86,4.173,4.173,0,0,0-.117.986,5,5,0,0,1-.078.9,2.315,2.315,0,0,1-.273.762,1.446,1.446,0,0,1-.537.527,1.741,1.741,0,0,1-.869.2,1.689,1.689,0,0,1-1.337-.6,2.194,2.194,0,0,1-.518-1.494,2.707,2.707,0,0,1,.577-1.651A4.933,4.933,0,0,1,85.44,22a9.032,9.032,0,0,1,2.295-.878,11.464,11.464,0,0,1,2.754-.322,11.082,11.082,0,0,1,2.968.341,5.376,5.376,0,0,1,1.963.958A3.508,3.508,0,0,1,96.5,23.59a5.486,5.486,0,0,1,.331,1.953V39H93.281V36.559q-.625.487-1.23.986a10.024,10.024,0,0,1-1.309.908,7.382,7.382,0,0,1-1.562.673,6.791,6.791,0,0,1-1.993.264A5.066,5.066,0,0,1,85.283,39.049Zm5.6-9.551a15.366,15.366,0,0,0-2.3,1.22,7.542,7.542,0,0,0-1.739,1.514A2.737,2.737,0,0,0,86.153,34a3.165,3.165,0,0,0,.244,1.23,3.52,3.52,0,0,0,.644,1.025,3.213,3.213,0,0,0,.918.7,2.364,2.364,0,0,0,1.085.264,4.063,4.063,0,0,0,1.142-.157,5.713,5.713,0,0,0,1.045-.42,8.478,8.478,0,0,0,1.016-.625q.508-.362,1.035-.752v-6.66A23.4,23.4,0,0,0,90.879,29.5ZM59.072,38.678a9.2,9.2,0,0,1-2.988-1.953,8.933,8.933,0,0,1-2.667-6.416,9.723,9.723,0,0,1,.7-3.7,9.2,9.2,0,0,1,4.951-5.059,9.37,9.37,0,0,1,3.779-.751,10.143,10.143,0,0,1,3.76.683A9.247,9.247,0,0,1,69.6,23.356a8.543,8.543,0,0,1,1.963,2.783,8.386,8.386,0,0,1,.7,3.428,10.331,10.331,0,0,1-.7,3.818A9.568,9.568,0,0,1,69.6,36.5a9.418,9.418,0,0,1-2.988,2.109,9.02,9.02,0,0,1-3.76.781A9.816,9.816,0,0,1,59.072,38.678Zm1.192-16.035a5.239,5.239,0,0,0-1.475,1.417,7.441,7.441,0,0,0-1.025,2.09,8.292,8.292,0,0,0-.381,2.539,15.7,15.7,0,0,0,.41,3.662,10.008,10.008,0,0,0,1.2,2.978,6.265,6.265,0,0,0,1.933,2,4.7,4.7,0,0,0,2.588.733,3.589,3.589,0,0,0,1.924-.537,5.127,5.127,0,0,0,1.5-1.445,7.159,7.159,0,0,0,.985-2.11,9.014,9.014,0,0,0,.352-2.549,18.922,18.922,0,0,0-.332-3.632,9.318,9.318,0,0,0-1.074-2.959,5.3,5.3,0,0,0-4.883-2.705A3.224,3.224,0,0,0,60.264,22.642ZM39.375,38.7A8.51,8.51,0,0,1,36.709,36.8a8.916,8.916,0,0,1-1.8-2.8,9.017,9.017,0,0,1-.654-3.438,10.043,10.043,0,0,1,.723-3.8,9.8,9.8,0,0,1,1.973-3.1,9.366,9.366,0,0,1,2.939-2.09,8.567,8.567,0,0,1,3.6-.771,10.827,10.827,0,0,1,2.764.332,8.008,8.008,0,0,1,2.177.9,4.454,4.454,0,0,1,1.427,1.347,3.028,3.028,0,0,1,.508,1.68,1.487,1.487,0,0,1-.205.761,2.12,2.12,0,0,1-.547.615,2.873,2.873,0,0,1-.761.42,2.416,2.416,0,0,1-.85.157,2.178,2.178,0,0,1-.86-.167,1.887,1.887,0,0,1-.654-.449,2.145,2.145,0,0,1-.41-.634,1.825,1.825,0,0,1-.146-.7,5.054,5.054,0,0,0-.127-1.163,2.132,2.132,0,0,0-.469-.928,2.3,2.3,0,0,0-.918-.615,4.117,4.117,0,0,0-1.475-.225,4.7,4.7,0,0,0-2.168.489,4.918,4.918,0,0,0-1.621,1.318,5.913,5.913,0,0,0-1.015,1.953,7.948,7.948,0,0,0-.352,2.392,11.7,11.7,0,0,0,.439,3.233,8.63,8.63,0,0,0,1.26,2.676A6.382,6.382,0,0,0,41.465,36a4.977,4.977,0,0,0,2.559.674,5.444,5.444,0,0,0,2.158-.391,5.106,5.106,0,0,0,1.582-1.055,6.531,6.531,0,0,0,1.152-1.543,15.038,15.038,0,0,0,.85-1.856l1.075.429a12.355,12.355,0,0,1-1.211,3,8.937,8.937,0,0,1-1.8,2.236A7.411,7.411,0,0,1,45.489,38.9a8.037,8.037,0,0,1-2.832.488A7.821,7.821,0,0,1,39.375,38.7Zm74.668.312a9.282,9.282,0,0,1-1.748-.586,8.828,8.828,0,0,1-1.426-.81q-.634-.45-1.182-.9l1.23-1.641.918.772a14.3,14.3,0,0,0,1.182.888,8.9,8.9,0,0,0,1.328.743,3.333,3.333,0,0,0,1.377.312,3.227,3.227,0,0,0,2.354-.811,2.878,2.878,0,0,0,.83-2.158V15.875h3.887v16.5a13.756,13.756,0,0,1-.225,2.489,5.365,5.365,0,0,1-.928,2.2,4.929,4.929,0,0,1-2,1.572,8.312,8.312,0,0,1-3.428.6A9.491,9.491,0,0,1,114.043,39.01Zm79.3-.01V21.168h3.515v3.379a15.5,15.5,0,0,1,1.123-1.435,10.17,10.17,0,0,1,1.24-1.192,5.933,5.933,0,0,1,1.338-.82,3.464,3.464,0,0,1,1.4-.3,3.244,3.244,0,0,1,1.085.175,2.983,2.983,0,0,1,.868.469,2.261,2.261,0,0,1,.587.683,1.683,1.683,0,0,1,.214.821,1.575,1.575,0,0,1-.537,1.309,2.332,2.332,0,0,1-1.494.429,2.916,2.916,0,0,1-.947-.127,5.556,5.556,0,0,1-.654-.274q-.293-.146-.586-.273a1.919,1.919,0,0,0-.762-.128,1.986,1.986,0,0,0-1.416.782,13.179,13.179,0,0,0-1.455,1.992V39Zm-30.7,0V22.672h-3.749v-1.5h3.749v-2.09a7.234,7.234,0,0,1,.518-2.744A7.132,7.132,0,0,1,164.57,14.1a6.569,6.569,0,0,1,2.11-1.5,6.238,6.238,0,0,1,2.6-.547,8.575,8.575,0,0,1,2.1.235,5.074,5.074,0,0,1,1.553.644,3.039,3.039,0,0,1,.957.957,2.254,2.254,0,0,1,.332,1.192,1.5,1.5,0,0,1-.546,1.24,1.966,1.966,0,0,1-1.27.439,1.628,1.628,0,0,1-1-.254,1.781,1.781,0,0,1-.518-.625,3.805,3.805,0,0,1-.292-.821,3.3,3.3,0,0,0-.312-.82,1.817,1.817,0,0,0-.577-.625,1.889,1.889,0,0,0-1.074-.255,1.712,1.712,0,0,0-.977.3,2.737,2.737,0,0,0-.771.8,4.256,4.256,0,0,0-.508,1.142,4.788,4.788,0,0,0-.185,1.328v4.238h4.766v1.5h-4.766V39Zm-13.379,0V22.672h-3.75v-1.5h3.75v-2.09a7.252,7.252,0,0,1,.518-2.744,7.148,7.148,0,0,1,1.416-2.237,6.578,6.578,0,0,1,2.11-1.5,6.239,6.239,0,0,1,2.6-.547,8.569,8.569,0,0,1,2.1.235,5.07,5.07,0,0,1,1.553.644,3.048,3.048,0,0,1,.957.957,2.254,2.254,0,0,1,.332,1.192,1.5,1.5,0,0,1-.547,1.24,1.964,1.964,0,0,1-1.269.439,1.628,1.628,0,0,1-1-.254,1.771,1.771,0,0,1-.518-.625,3.8,3.8,0,0,1-.293-.821,3.235,3.235,0,0,0-.312-.82,1.814,1.814,0,0,0-.576-.625,1.892,1.892,0,0,0-1.075-.255,1.716,1.716,0,0,0-.977.3,2.76,2.76,0,0,0-.771.8A4.228,4.228,0,0,0,153,15.6a4.755,4.755,0,0,0-.185,1.328v4.238h4.766v1.5h-4.766V39ZM75.839,39V13.043l2.52-1h1.015V39ZM27.246,39V21.812L29.727,20.8h1.035V39Zm.938-23.545a2.124,2.124,0,0,1-.644-.391A1.942,1.942,0,0,1,27.1,14.5a1.453,1.453,0,0,1-.167-.674,1.491,1.491,0,0,1,.167-.693,1.93,1.93,0,0,1,.439-.566,2,2,0,0,1,.644-.382,2.247,2.247,0,0,1,.781-.137,2.329,2.329,0,0,1,.791.137,1.975,1.975,0,0,1,.654.382,1.93,1.93,0,0,1,.439.566,1.491,1.491,0,0,1,.167.693,1.453,1.453,0,0,1-.167.674,1.942,1.942,0,0,1-.439.566,2.09,2.09,0,0,1-.654.391,2.175,2.175,0,0,1-.791.147A2.1,2.1,0,0,1,28.184,15.455Z" transform="translate(-2.411 -11.546)" fill="#fff" stroke="rgba(0,0,0,0)" stroke-miterlimit="10" stroke-width="1"/>
</svg>
